<?xml version="1.0" encoding="UTF-8" standalone="no"?>
<!-- Created with Inkscape (http://www.inkscape.org/) -->

<svg
   width="239.22937"
   height="47.182499"
   viewBox="0 0 239.22937 47.1825"
   version="1.1"
   id="svg5"
   xmlns="http://www.w3.org/2000/svg">
  <g
     id="g45">
    <path
       d="m 13.584796,28.011711 4.887219,-1.315947 -1.336591,-2.42252 c -0.75425,-0.794364 -1.70095,-1.480791 -3.208047,-1.192759 -1.507102,0.288043 -1.989182,1.505482 -1.561001,2.391479 z m 7.384735,2.876402 -4.970533,1.375013 2.327735,4.776984 -5.88085,1.287673 -6.3708282,-11.146664 c -2.1670593,-3.791577 0.8374062,-8.116886 5.5951042,-9.02615 4.757707,-0.909269 9.997674,1.118585 12.083208,4.955613 l 5.536493,11.202741 -5.881318,1.235547 z"
       id="path31862"
       style="font-size:27.6px;line-height:125%;font-family:'PumpOpti Demi';-inkscape-font-specification:'PumpOpti Demi';letter-spacing:0.15px;word-spacing:0px;fill:#0c51ec;fill-opacity:1;stroke:none;stroke-width:0.264583px" />
    <path
       d="m 29.431397,14.568455 c -5.27983,1.510384 -4.913316,5.052885 -3.983509,7.246143 1.493409,3.522699 5.966062,3.988587 6.73709,5.794299 0.272564,0.62048 0.318008,1.241734 -0.956286,1.621704 -0.886513,0.264316 -2.295034,0.302694 -2.295034,0.302694 l 1.220973,4.10619 c 1.133316,0.361925 3.375193,0.115023 4.662933,-0.180388 2.714943,-0.809508 5.87643,-2.651793 4.067482,-6.888274 -1.285047,-3.009518 -6.348931,-4.35883 -6.745446,-6.023986 -0.169783,-0.712911 0.290755,-1.312043 1.013044,-1.501354 0.519009,-0.136037 1.611288,-0.09032 2.204899,-0.162938 l -2.218866,-4.673506 c -1.099028,-0.133589 -2.777655,0.111351 -3.70728,0.359402 z"
       id="path31864"
       style="font-size:27.6px;line-height:125%;font-family:'PumpOpti Demi';-inkscape-font-specification:'PumpOpti Demi';letter-spacing:0.15px;word-spacing:0px;fill:#0c51ec;fill-opacity:1;stroke:none;stroke-width:0.264582px" />
    <path
       d="m 77.893164,40.723556 c 0.200741,0.808137 -0.07427,1.47632 -1.420708,1.522566 -0.936645,0.03201 -2.23413,-0.04801 -2.23413,-0.04801 l 0.745889,4.611976 c 1.083492,0.202512 1.875269,0.370314 3.336085,0.05881 2.702881,-0.576357 5.602508,-1.510108 5.011843,-6.057438 -0.410107,-3.15728 -4.338992,-5.255235 -4.740415,-6.871505 -0.259721,-1.045822 0.0713,-1.775676 1.359091,-1.819914 0.556137,-0.01921 0.840184,-7.95e-4 1.449203,0.07412 L 81.12881,27.881709 c -0.947651,-0.132082 -2.097346,-0.154635 -2.887383,-0.188456 -5.422241,0.67005 -5.845605,4.210423 -5.234841,6.474265 0.926676,3.434796 4.456103,4.682139 4.886578,6.556035 z"
       id="path31864-0"
       style="font-size:27.6px;line-height:125%;font-family:'PumpOpti Demi';-inkscape-font-specification:'PumpOpti Demi';letter-spacing:0.15px;word-spacing:0px;fill:#0a43c4;fill-opacity:1;stroke:none;stroke-width:0.264583px" />
    <path
       d="m 46.403522,23.13673 1.801118,-0.201419 c 1.801114,-0.20142 3.107265,0.05333 4.007675,2.335177 l 1.466549,4.220231 5.770253,-0.618433 -1.591042,-5.493022 c -0.872009,-2.209787 -2.111819,-2.817207 -3.898735,-3.59547 0.834121,-1.049995 1.222201,-1.884657 0.643341,-4.730539 l -1.138151,-4.461146 -6.47674,1.075824 1.134301,4.062642 c 0.270154,0.81443 -0.268277,2.509378 -1.781762,2.781953 -0.86091,0.155057 -1.797493,0.26645 -1.797493,0.26645 l -2.41447,-6.214906 -6.055571,1.122931 7.245954,17.659211 5.961997,-1.039407 z"
       id="path31866"
       style="font-size:27.6px;line-height:125%;font-family:'PumpOpti Demi';-inkscape-font-specification:'PumpOpti Demi';letter-spacing:0.15px;word-spacing:0px;fill:#0c51ec;fill-opacity:1;stroke:none;stroke-width:0.264583px" />
    <path
       d="m 75.009513,21.110813 c 1.394868,-0.0792 0.89142,-0.06928 1.711097,-0.150291 4.496584,-0.557584 7.218104,-3.329569 6.430965,-6.995204 C 82.138564,9.2478142 77.775449,8.3006036 73.312124,8.5685327 l -8.857583,0.4931405 4.730833,18.3237168 5.851991,-0.507122 -3.411911,-13.696412 1.885217,-0.153028 c 1.551539,-0.153286 3.030255,0.359004 3.427614,1.662803 0.358359,1.175837 -1.176337,2.236403 -3.179062,2.320639 0.428281,2.088567 0.80432,2.411396 1.25029,4.098543 z"
       id="path31868"
       style="font-size:27.6px;line-height:125%;font-family:'PumpOpti Demi';-inkscape-font-specification:'PumpOpti Demi';letter-spacing:0.15px;word-spacing:0px;fill:#0a43c4;fill-opacity:1;stroke:none;stroke-width:0.264582px" />
    <path
       d="m 103.49655,24.708117 -0.43787,-4.314796 c -0.25728,-1.788208 -0.85897,-3.369508 -2.41596,-4.071049 1.25277,-1.206023 1.63035,-2.436937 1.37303,-4.22514 C 101.64835,7.9605988 97.829263,6.7448023 92.59887,6.9409 l -8.37136,0.2012168 2.934543,18.1970322 6.042174,-0.498272 -1.678244,-13.235016 1.122009,-0.14018 c 1.838106,-0.229628 2.929059,0.674164 3.05443,1.568944 0.233357,1.665611 -0.637126,1.916855 -3.23793,2.067302 l 0.511789,4.013774 0.973642,-0.04832 c 2.593242,-0.128698 3.518138,0.746797 3.661952,2.226299 l 0.356333,3.665804 z"
       id="path31870"
       style="font-size:27.6px;line-height:125%;font-family:'PumpOpti Demi';-inkscape-font-specification:'PumpOpti Demi';letter-spacing:0.15px;word-spacing:0px;fill:#0a43c4;fill-opacity:1;stroke:none;stroke-width:0.264583px" />
    <path
       d="m 128.84902,15.639855 c 0.42992,-5.9812756 -4.92849,-9.6858329 -11.78077,-9.9610257 -7.2595,-0.2915459 -12.30404,3.9776411 -11.96508,9.6217187 0.0339,5.248919 5.35075,9.162122 11.91569,9.135061 6.56494,-0.02712 11.45384,-3.560232 11.83016,-8.795754 z m -6.40197,-0.534726 c -0.0752,2.412393 -2.26979,4.183131 -5.4208,4.589088 -3.12271,-0.171139 -5.41635,-2.185517 -5.61956,-4.608515 -0.0166,-2.588507 2.55818,-4.637493 5.82566,-4.650961 3.33502,0.19852 5.26582,2.46494 5.2147,4.670388 z"
       id="path31872"
       style="font-size:27.6px;line-height:125%;font-family:'PumpOpti Demi';-inkscape-font-specification:'PumpOpti Demi';letter-spacing:0.15px;word-spacing:0px;fill:#0a43c4;fill-opacity:1;stroke:none;stroke-width:0.264583px" />
    <path
       d="m 149.81972,14.40541 -6.15142,-0.479044 0.0418,-0.498637 c 0.008,-1.543357 -0.68221,-2.36536 -2.62697,-2.537611 -1.79871,-0.159314 -2.50342,1.259776 -3.03546,2.590891 l -0.0928,1.98223 6.85619,0.38696 -0.34932,4.311219 -6.8129,-0.497154 -0.46111,4.638606 -5.66293,-0.493742 0.35748,-11.035083 c -0.01,-2.9604106 4.81005,-7.4637282 9.67401,-6.8351196 5.45606,0.7051298 8.43215,3.3220616 8.36632,7.2317436 z"
       id="path31874"
       style="font-size:27.6px;line-height:125%;font-family:'PumpOpti Demi';-inkscape-font-specification:'PumpOpti Demi';letter-spacing:0.15px;word-spacing:0px;fill:#0a43c4;fill-opacity:1;stroke:none;stroke-width:0.264583px" />
    <path
       d="m 167.89009,8.0339564 -0.68415,4.0927866 -4.85013,-0.187161 c -1.91143,-0.209743 -3.22266,0.25552 -3.27978,1.19766 -0.0591,0.975086 0.81141,1.671267 3.57731,1.818547 l 3.80319,0.09585 -0.6209,4.126675 -4.34731,-0.115881 c -1.5017,-0.04003 -3.24708,-0.188199 -3.45254,1.138272 -0.0643,1.303014 1.06115,1.586617 3.12997,1.698204 l 3.78226,0.204004 -0.68568,4.121629 -8.10365,-0.680697 c -3.75618,-0.315514 -5.82914,-3.815254 -5.02196,-5.898026 0.60461,-1.560081 1.70184,-2.636825 2.90599,-3.63569 -1.31148,-1.18845 -1.46621,-2.073545 -1.25154,-3.932064 0.43147,-3.7353836 3.19515,-4.6183454 7.77316,-4.4250699 z"
       id="path31876"
       style="font-size:27.6px;line-height:125%;font-family:'PumpOpti Demi';-inkscape-font-specification:'PumpOpti Demi';letter-spacing:0.15px;word-spacing:0px;fill:#0a43c4;fill-opacity:1;stroke:none;stroke-width:0.264582px" />
    <path
       d="m 170.64987,13.490636 c -0.83942,3.541704 2.03857,6.204982 1.60781,8.022435 -0.18767,0.792062 -0.80624,1.241891 -2.33396,1.164204 -1.06276,-0.05408 -1.82456,-0.827558 -1.82456,-0.827558 l -1.20407,4.909492 c 1.10717,0.292111 1.04815,0.335552 2.74193,0.421641 3.99939,0.264881 8.01965,-0.277412 8.55208,-4.826937 0.57331,-2.309458 -1.79151,-5.524027 -1.41593,-7.10848 0.24292,-1.025209 0.81732,-1.387368 2.27868,-1.313071 0.63092,0.03239 1.36329,0.102558 2.00543,0.229594 l 0.42891,-5.067005 c -0.96275,-0.1240537 -1.29695,-0.1795283 -2.08369,-0.1411938 -6.34274,0.3090544 -8.16353,2.6590598 -8.75263,4.5368788 z"
       id="path31878"
       style="font-size:27.6px;line-height:125%;font-family:'PumpOpti Demi';-inkscape-font-specification:'PumpOpti Demi';letter-spacing:0.15px;word-spacing:0px;fill:#0a43c4;fill-opacity:1;stroke:none;stroke-width:0.264576px" />
    <path
       d="m 183.09024,15.06319 c -1.17342,3.462797 1.44414,5.789569 0.96033,7.602332 -0.21084,0.790014 -1.14943,1.441083 -2.67036,1.331692 -1.05805,-0.07612 -2.09561,-0.728616 -2.09561,-0.728616 l -0.68122,4.514506 c 0.91915,0.515118 1.90873,0.992747 3.02244,1.090513 3.15732,0.277163 6.47713,-0.472823 8.44201,-4.289145 0.80632,-3.021242 -1.46815,-6.066833 -1.04633,-7.647192 0.27286,-1.022561 1.26209,-1.69243 2.71697,-1.587807 0.62813,0.04535 1.62929,0.219422 2.26577,0.359941 l 1.16348,-4.741929 c -1.03325,-0.169068 -2.43127,-0.169259 -3.32401,-0.233453 -6.355,-0.423242 -8.03894,2.220552 -8.75347,4.329158 z"
       id="path31878-2"
       style="font-size:27.6px;line-height:125%;font-family:'PumpOpti Demi';-inkscape-font-specification:'PumpOpti Demi';letter-spacing:0.15px;word-spacing:0px;fill:#0a43c4;fill-opacity:1;stroke:none;stroke-width:0.264576px" />
    <path
       d="m 217.6514,22.419868 c 0.4297,-5.295597 -3.69948,-9.02088 -12.39074,-8.937137 -7.44191,0.07171 -11.78025,4.837722 -12.20996,9.253744 -0.51456,5.28803 4.18962,9.369386 10.8297,9.308806 6.64008,-0.06056 13.34129,-4.329819 13.771,-9.625413 z m -6.63998,-0.129396 c -0.21039,2.684659 -3.33156,5.063621 -6.66679,5.094048 -3.30485,0.03013 -5.12036,-2.893442 -5.07072,-4.488994 0.0751,-2.415082 3.17769,-4.869827 5.85065,-4.950372 2.63682,-0.04373 6.08197,1.8556 5.88686,4.345318 z"
       id="path31882"
       style="font-size:27.6px;line-height:125%;font-family:'PumpOpti Demi';-inkscape-font-specification:'PumpOpti Demi';letter-spacing:0.15px;word-spacing:0px;fill:#0a43c4;fill-opacity:1;stroke:none;stroke-width:0.264583px" />
    <path
       d="m 231.6663,38.136201 2.02521,-3.856906 c 0.89795,-1.710083 0.69855,-3.702532 0.28738,-4.2057 1.9705,-0.753297 3.82999,-1.945881 4.75491,-3.641551 1.428,-4.81073 -1.84357,-6.619668 -6.1579,-7.70112 l -8.13332,-2.038739 -9.20185,17.876657 6.06862,1.034214 6.73426,-12.785317 1.29564,0.15114 c 2.30051,0.423698 2.96208,1.289866 2.18722,2.710573 -0.81251,1.489415 -1.94151,1.554709 -4.50597,0.954571 l -1.72843,3.235203 0.73716,0.278666 c 2.03961,0.789558 2.64099,1.479749 1.79684,3.041052 l -1.92088,3.55278 z"
       id="path31884"
       style="font-size:27.6px;line-height:125%;font-family:'PumpOpti Demi';-inkscape-font-specification:'PumpOpti Demi';letter-spacing:0.15px;word-spacing:0px;fill:#0a43c4;fill-opacity:1;stroke:none;stroke-width:0.264583px" />
    <path
       d="m 97.948102,39.792811 c -0.761692,0.245372 -1.479804,0.314822 -2.470213,0.371278 -2.9177,0.16628 -5.351689,-1.495558 -5.737358,-4.140378 -0.375194,-2.573332 1.312432,-4.860694 4.23012,-5.027023 0.936879,-0.05337 1.853496,-0.09692 2.666963,0.09372 l -0.620106,-4.350282 c -0.857595,-0.143306 -1.571776,-0.275474 -2.456548,-0.276754 -6.075661,-0.0087 -10.410273,4.004834 -9.441889,9.632531 0.973487,5.65735 5.68442,9.305724 11.632851,8.897805 0.909453,-0.06237 1.975311,-0.203265 2.723779,-0.438118 z"
       id="path45443"
       style="font-size:25.5617px;line-height:125%;font-family:'PumpOpti Demi';-inkscape-font-specification:'PumpOpti Demi';letter-spacing:0.11982px;word-spacing:0px;fill:#0a43c4;fill-opacity:1;stroke:none;stroke-width:0.264583px" />
    <path
       d="m 98.829791,26.422524 2.027169,18.04228 5.3247,-0.426017 -1.87214,-18.002859 z"
       id="path45445"
       style="font-size:25.5617px;line-height:125%;font-family:'PumpOpti Demi';-inkscape-font-specification:'PumpOpti Demi';letter-spacing:0.11982px;word-spacing:0px;fill:#0a43c4;fill-opacity:1;stroke:none;stroke-width:0.264583px" />
    <path
       d="m 120.49718,25.914453 0.0195,4.17235 -3.69929,0.02687 c -2.76224,-0.06482 -3.03797,0.512105 -3.04134,1.427735 0.0732,0.762226 0.33183,1.374221 3.53647,1.343866 l 3.17824,-0.05964 6.1e-4,4.163719 -3.40413,0.122954 c -2.61168,-0.08339 -2.77632,0.512892 -2.77943,1.358092 -0.0226,0.685354 0.0891,1.628952 2.96473,1.557011 l 3.27508,-0.0021 0.0189,3.958469 -7.31255,0.04683 c -3.86317,-0.60438 -5.06002,-3.023038 -5.07962,-4.72883 0.006,-1.666919 0.3522,-3.350303 1.88138,-4.190736 -1.38364,-1.013876 -2.09334,-2.131649 -2.08652,-3.986391 -0.37647,-2.843208 1.50776,-4.883448 5.96525,-5.16086 z"
       id="path45447"
       style="font-size:25.5617px;line-height:125%;font-family:'PumpOpti Demi';-inkscape-font-specification:'PumpOpti Demi';letter-spacing:0.11982px;word-spacing:0px;fill:#0a43c4;fill-opacity:1;stroke:none;stroke-width:0.264583px" />
    <path
       d="m 138.92007,44.411457 1.18959,-11.806908 c -0.0353,-5.508332 -3.69661,-6.597543 -8.01848,-6.86491 -4.20419,-0.260087 -7.93422,3.105087 -7.98166,7.168845 l -0.13106,11.227642 5.00427,0.105032 0.73295,-10.851845 c 0.0335,-1.889561 1.2188,-3.022222 2.86717,-2.96928 1.64838,0.05295 2.03386,1.494309 2.00028,3.383855 l -0.93472,10.50433 z"
       id="path45449"
       style="font-size:25.5617px;line-height:125%;font-family:'PumpOpti Demi';-inkscape-font-specification:'PumpOpti Demi';letter-spacing:0.11982px;word-spacing:0px;fill:#0a43c4;fill-opacity:1;stroke:none;stroke-width:0.264583px" />
    <path
       d="m 154.23534,40.377884 c -0.77349,0.270229 -2.44805,0.352048 -3.44313,0.02747 -2.71667,-0.886268 -3.89281,-3.121731 -3.63985,-4.851919 0.38028,-2.600976 3.64465,-4.528974 5.95284,-4.328164 0.90839,0.07902 2.09145,0.619746 2.90583,0.947501 l 0.30803,-4.884782 c -0.81082,-0.22089 -1.99413,-0.272921 -2.84942,-0.360276 -5.37621,-0.549101 -10.2094,2.482714 -11.21192,7.229431 -1.112,5.26506 1.72279,10.669996 7.65706,11.090581 0.88227,0.07894 2.92113,-0.242622 3.71529,-0.36559 z"
       id="path45451"
       style="font-size:25.5617px;line-height:125%;font-family:'PumpOpti Demi';-inkscape-font-specification:'PumpOpti Demi';letter-spacing:0.11982px;word-spacing:0px;fill:#0a43c4;fill-opacity:1;stroke:none;stroke-width:0.264581px" />
    <path
       d="m 171.87534,28.482777 -0.85252,4.108032 -4.13922,-0.680887 c -1.68446,-0.277088 -2.7032,0.528882 -2.87968,1.441156 -0.31212,1.39725 0.3142,1.510443 2.13401,1.81098 l 3.68711,0.514855 -0.67019,4.040554 -3.88231,-0.570406 c -1.32405,-0.160254 -2.8037,0.175155 -3.00474,1.400534 -0.0763,1.375874 1.10995,1.338226 3.46898,1.629218 l 2.52277,0.311191 -0.67851,4.093255 -7.74562,-0.509458 c -2.41981,-0.218337 -4.41094,-3.673029 -3.98111,-5.89523 0.32137,-1.660791 1.53953,-2.801508 3.1642,-3.519613 -1.13434,-1.118559 -1.27209,-2.51575 -0.91467,-4.363683 0.50649,-2.61988 3.37405,-4.567773 6.16559,-4.341936 z"
       id="path45453"
       style="font-size:25.5617px;line-height:125%;font-family:'PumpOpti Demi';-inkscape-font-specification:'PumpOpti Demi';letter-spacing:0.11982px;word-spacing:0px;fill:#0a43c4;fill-opacity:1;stroke:none;stroke-width:0.264582px" />
  </g>
</svg>
